<?xml version="1.0" encoding="utf-8"?>
<!-- Generator: Adobe Illustrator 16.0.0, SVG Export Plug-In . SVG Version: 6.00 Build 0)  -->
<!DOCTYPE svg PUBLIC "-//W3C//DTD SVG 1.1//EN" "http://www.w3.org/Graphics/SVG/1.1/DTD/svg11.dtd">
<svg version="1.1" id="Layer_1" xmlns="http://www.w3.org/2000/svg" xmlns:xlink="http://www.w3.org/1999/xlink" x="0px" y="0px"
	 width="1792px" height="1792px" viewBox="0 0 1792 1792" enable-background="new 0 0 1792 1792" xml:space="preserve">
<path fill="#5C4B92" d="M782,1078c-0.667,2-4.833,1.833-12.5-0.5s-18.167-6.167-31.5-11.5l-20-9c-29.333-13.333-58.333-29.667-87-49
	c-4.667-3.333-18.333-13.833-41-31.5s-35.333-27.167-38-28.5c-44.667,68.667-89.333,129-134,181c-54,63.333-89,100-105,110
	c-2.667,1.333-9.167,2.667-19.5,4s-16.5,1.333-18.5,0c4-2.667,31.333-33.333,82-92c14-16,42.5-54.333,85.5-115s69.167-100,78.5-118
	c11.333-20,28.333-52.833,51-98.5s34.667-71.5,36-77.5c-5.333-0.667-42,10.333-110,33c-5.333,1.333-14.5,3.833-27.5,7.5
	S446,789.333,436,792s-15.667,4.333-17,5c-1.333,1.333-2,4.833-2,10.5s-0.333,8.833-1,9.5c-3.333,6.667-13.667,11.667-31,15
	c-15.333,4.667-31,4.667-47,0c-12-2.667-21.333-9.667-28-21c-2.667-4-4.333-11.667-5-23c4-1.333,12.167-3,24.5-5s22.167-4,29.5-6
	c38.667-10.667,73.667-21.333,105-32c66.667-23.333,100.667-35,102-35c6.667-1.333,21-7.833,43-19.5s36.667-18.833,44-21.5
	c6-2,13.167-4.667,21.5-8s13.167-5.167,14.5-5.5s3.333-0.167,6,0.5c1.333,8,1,19-1,33c0,1.333-4.167,10.333-12.5,27
	s-17.167,34.5-26.5,53.5s-15,30.167-17,33.5c-16.667,33.333-42.333,77-77,131l64,28c8,4,32.833,14.667,74.5,32
	s64.167,26.667,67.5,28c2.667,0.667,6.167,9.167,10.5,25.5S783.333,1074,782,1078z M577,592c2,10,0.667,19.333-4,28
	c-8,15.333-24.667,28-50,38c-20,8-40,12-60,12c-17.333-2-33.667-10.667-49-26c-9.333-10-15.333-23.667-18-41l1-3
	c2,2,8.5,3.667,19.5,5s19.833,1.333,26.5,0s26-6.667,58-16c24-8,42.333-12.667,55-14C567.333,575,574.333,580.667,577,592z
	 M1275,721l63,227l-139-42L1275,721z M167,1521l694-232V257L167,490V1521z M1408,1204l102,31l-181-657l-100-31l-216,536l102,31
	l45-110l211,65L1408,1204z M905,242l573,184V46L905,242z M1216,1565l158,13l-54,160l-40-66c-86.667,55.333-178.667,91.333-276,108
	c-38.667,8-69,12-91,12h-84c-52.667,0-119.167-13-199.5-39S488,1698.667,446,1668c-5.333-4.667-8-10-8-16
	c0-5.333,1.667-9.833,5-13.5s7.667-5.5,13-5.5c2.667,0,8.667,2.5,18,7.5s19.5,10.5,30.5,16.5s17.833,9.667,20.5,11
	c48.667,24.667,101.833,45.167,159.5,61.5S794.667,1754,842,1754c63.333,0,119-4.833,167-14.5s100.333-26.5,157-50.5
	c10-4.667,20.167-9.833,30.5-15.5s21.667-12,34-19s21.833-12.5,28.5-16.5L1216,1565z M1664,486v1079l-774-246
	c-9.333,4-134.333,46.5-375,127.5c-240.667,81-363.333,121.5-368,121.5c-8.667,0-14.667-4.333-18-13c0-0.667-0.333-1.667-1-3V474
	c2-6,3.333-9.333,4-10c3.333-4,10-7.667,20-11c70.667-23.333,120.333-40,149-50V19l558,198c1.333,0,54.833-18.333,160.5-55
	s211-72.833,316-108.5S1494.333,0,1497,0c13.333,0,20,7,20,21v418L1664,486z"/>
</svg>
